<svg fill="currentColor"   viewBox="0 0 1050 1000"   xmlns="http://www.w3.org/2000/svg"><path d="M644 723V287c0-46 59-63 84-25l280 436c20 30-2 70-38 70H690c-26 0-46-20-46-45zM281 438L127 678h154V438zM7 698l281-436c24-38 83-21 83 25v436c0 25-20 45-45 45H46c-36 0-58-40-39-70zM508 0c27 0 50 22 50 50v64c0 27-23 50-50 50-28 0-50-23-50-50V50c0-28 22-50 50-50zm0 279c27 0 50 22 50 50v63c0 28-23 50-50 50-28 0-50-22-50-50v-63c0-28 22-50 50-50zm0 278c27 0 50 23 50 50v64c0 27-23 50-50 50-28 0-50-23-50-50v-64c0-27 22-50 50-50zm0 279c27 0 50 22 50 50v64c0 27-23 50-50 50-28 0-50-23-50-50v-64c0-28 22-50 50-50z"></path></svg>