<svg fill="currentColor"   viewBox="0 0 875 1000"  xmlns="http://www.w3.org/2000/svg"><path d="M438 594c-26 0-47 21-47 47v93c0 26 21 47 47 47s46-21 46-47v-93c0-26-20-47-46-47zm312-219H281V250c0-86 70-156 157-156 68 0 127 43 148 108 8 25 35 38 59 30 25-8 39-34 31-59C642 70 546 0 438 0 300 0 188 112 188 250v125h-63C56 375 0 431 0 500v375c0 69 56 125 125 125h625c69 0 125-56 125-123V500c0-69-56-125-125-125zm31 500c0 17-14 31-31 31H125c-17 0-31-14-31-31V500c0-17 14-31 31-31h625c17 0 31 14 31 31v375z"></path></svg>