<svg xmlns="http://www.w3.org/2000/svg" viewBox="0 0 20 20" style="enable-background:new 0 0 20 20" xml:space="preserve"><path fill="#404040" style="fill-rule:evenodd;clip-rule:evenodd" d="M15.85 3h-4.91V.94a.94.94 0 0 0-1.88 0V3H4.15C3.515 3 3 3.521 3 4.163v3.673C3 8.479 3.515 9 4.15 9h4.91v3H2.15C1.515 12 1 12.521 1 13.163v3.673C1 17.479 1.515 18 2.15 18h6.91v1.06a.94.94 0 0 0 1.88 0V18h6.91c.635 0 1.15-.521 1.15-1.163v-3.673c0-.643-.515-1.164-1.15-1.164h-6.91V9h4.91C16.485 9 17 8.479 17 7.837V4.163C17 3.521 16.485 3 15.85 3zM4.896 7.082h10.207V4.918H4.896v2.164zm12.208 9H2.896v-2.163h14.207v2.163z"/></svg>
