<svg xmlns="http://www.w3.org/2000/svg" viewBox="0 0 20 20" style="enable-background:new 0 0 20 20" xml:space="preserve"><path fill="#404040" style="opacity:.8;fill-rule:evenodd;clip-rule:evenodd;enable-background:new" d="M8 4H4v4h4V4zm0 8H4v4h4v-4z"/><path fill="#404040" style="fill-rule:evenodd;clip-rule:evenodd" d="M0 0h4v4H0V0zm0 16h4v4H0v-4zm4-7.999H0v4h4v-4z"/><path fill="#404040" style="opacity:.4;fill-rule:evenodd;clip-rule:evenodd;enable-background:new" d="M16 4h-4v4h4V4zm0 8h-4v4h4v-4z"/><path fill="#404040" style="opacity:.6;fill-rule:evenodd;clip-rule:evenodd;enable-background:new" d="M8 0h4v4H8V0zm0 16h4v4H8v-4zm4-7.999H8v4h4v-4z"/><path fill="#404040" style="opacity:.2;fill-rule:evenodd;clip-rule:evenodd;enable-background:new" d="M16 0h4v4h-4V0zm0 16h4v4h-4v-4zm4-7.999h-4v4h4v-4z"/></svg>
